<?xml version="1.0" encoding="UTF-8"?>
<svg xmlns="http://www.w3.org/2000/svg" viewBox="0 0 100 150">
  <!-- More Natural Sandwich - Grilled Cheese -->
  <defs>
     <linearGradient id="breadGradient_y" x1="0%" y1="0%" x2="0%" y2="100%">
      <stop offset="0%" style="stop-color:#e8cca0;stop-opacity:1" />
      <stop offset="100%" style="stop-color:#e0b66e;stop-opacity:1" />
    </linearGradient>
     <linearGradient id="cheeseGradient_y" x1="0%" y1="0%" x2="0%" y2="100%">
      <stop offset="0%" style="stop-color:#FFEA00;stop-opacity:1" />
      <stop offset="100%" style="stop-color:#FFBF00;stop-opacity:1" />
    </linearGradient>
     <!-- Grill marks pattern -->
     <pattern id="grillMarks" patternUnits="userSpaceOnUse" width="10" height="10" patternTransform="rotate(45)">
       <line x1="0" y1="5" x2="10" y2="5" stroke="#a17a37" stroke-width="1" />
     </pattern>
  </defs>

  <!-- Bottom Bread -->
  <path d="M 15 114 Q 18 110 50 110 Q 82 110 85 114 L 85 99 L 15 99 Z" fill="url(#breadGradient_y)" stroke="#c89f53" stroke-width="0.5"/>
  <rect x="15" y="99" width="70" height="15" fill="url(#grillMarks)" opacity="0.4"/>
  
  <!-- Thick Cheese -->
  <path d="M 20 99 
           C 25 95 35 97 40 96 
           C 45 95 55 97 60 96
           C 65 95 75 97 80 99
           L 80 60 
           C 75 63 70 60 65 62
           C 60 64 55 61 50 63
           C 45 65 40 62 35 64
           C 30 66 25 63 20 65 Z" fill="url(#cheeseGradient_y)" stroke="#e6a000" stroke-width="0.3"/>
  
  <!-- Top Bread -->
  <path d="M 15 60 Q 18 56 50 56 Q 82 56 85 60 L 85 45 L 15 45 Z" fill="url(#breadGradient_y)" stroke="#c89f53" stroke-width="0.5"/>
  <rect x="15" y="45" width="70" height="15" fill="url(#grillMarks)" opacity="0.4"/>

</svg> 