<?xml version="1.0" encoding="UTF-8"?>
<svg xmlns="http://www.w3.org/2000/svg" viewBox="0 0 100 150">
  <!-- More Natural Sandwich - Roast Beef -->
  <defs>
    <filter id="slightBlur_rb" x="-5%" y="-5%" width="110%" height="110%">
      <feGaussianBlur stdDeviation="0.5" />
    </filter>
     <linearGradient id="breadGradient_rb" x1="0%" y1="0%" x2="0%" y2="100%">
      <stop offset="0%" style="stop-color:#cfa14a;stop-opacity:1" />
      <stop offset="100%" style="stop-color:#c68e17;stop-opacity:1" />
    </linearGradient>
     <linearGradient id="roastBeefGradient" x1="0%" y1="0%" x2="0%" y2="100%">
      <stop offset="0%" style="stop-color:#8a4f11;stop-opacity:1" />
      <stop offset="100%" style="stop-color:#7b3f00;stop-opacity:1" />
    </linearGradient>
  </defs>

  <!-- Bottom Bread -->
  <path d="M 15 114 Q 18 110 50 110 Q 82 110 85 114 L 85 99 L 15 99 Z" fill="url(#breadGradient_rb)" stroke="#a57c00" stroke-width="0.5"/>
  
  <!-- Roast Beef -->
  <path d="M 18 99 Q 20 97 50 97 Q 80 97 82 99 L 82 87 L 18 87 Z" fill="url(#roastBeefGradient)" filter="url(#slightBlur_rb)"/>
  
  <!-- Cheese -->
  <path d="M 20 87 Q 22 85 50 85 Q 78 85 80 87 
           L 80 79 
           C 75 81 65 79 60 80 
           C 55 81 45 79 40 80
           C 35 81 25 79 20 79 Z" fill="#FFDA63" stroke="#e6b800" stroke-width="0.3"/>
  
  <!-- Tomato Slices -->
  <circle cx="35" cy="75" r="7" fill="#FF735A" stroke="#E5533A" stroke-width="0.3"/>
  <circle cx="50" cy="75" r="7" fill="#FF735A" stroke="#E5533A" stroke-width="0.3"/>
  <circle cx="65" cy="75" r="7" fill="#FF735A" stroke="#E5533A" stroke-width="0.3"/>
  
  <!-- Lettuce -->
  <path d="M 20 71 
           C 25 73 30 70 35 72 
           C 40 74 45 71 50 73
           C 55 75 60 72 65 74
           C 70 76 75 73 80 75 
           L 80 60 
           C 75 63 70 60 65 62
           C 60 64 55 61 50 63
           C 45 65 40 62 35 64
           C 30 66 25 63 20 65 Z" fill="#77DD77" stroke="#55bb55" stroke-width="0.4"/>
  
  <!-- Top Bread -->
  <path d="M 15 60 Q 18 56 50 56 Q 82 56 85 60 L 85 45 L 15 45 Z" fill="url(#breadGradient_rb)" stroke="#a57c00" stroke-width="0.5"/>
  
  <!-- Seeds -->
  <circle cx="30" cy="50" r="0.8" fill="#a57c00"/>
  <circle cx="45" cy="52" r="0.8" fill="#a57c00"/>
  <circle cx="55" cy="49" r="0.8" fill="#a57c00"/>
  <circle cx="70" cy="51" r="0.8" fill="#a57c00"/>

</svg> 